<?xml version="1.0" standalone="no"?>
<!DOCTYPE svg PUBLIC "-//W3C//DTD SVG 20010904//EN"
 "http://www.w3.org/TR/2001/REC-SVG-20010904/DTD/svg10.dtd">
<svg version="1.0" xmlns="http://www.w3.org/2000/svg"
 width="1131.000000pt" height="944.000000pt" viewBox="0 0 1131.000000 944.000000"
 preserveAspectRatio="xMidYMid meet">

<g transform="translate(0.000000,944.000000) scale(0.100000,-0.100000)"
fill="#000000" stroke="none">
<path d="M3347 8831 c-91 -30 -159 -88 -233 -198 -19 -29 -93 -164 -163 -300
-71 -137 -186 -354 -256 -483 -179 -329 -400 -768 -475 -945 -83 -195 -94
-206 -263 -263 -449 -151 -695 -205 -942 -206 -142 -1 -167 2 -227 22 -156 54
-254 175 -278 341 -8 58 -7 85 6 139 23 100 21 142 -11 170 -39 33 -101 30
-153 -8 -151 -109 -187 -407 -77 -639 90 -189 250 -319 473 -384 68 -19 99
-22 277 -22 257 0 378 21 708 121 82 25 161 44 175 42 49 -5 41 -49 -54 -323
-258 -744 -317 -967 -318 -1205 -1 -141 9 -185 57 -256 71 -106 202 -143 312
-90 114 57 148 115 438 751 85 187 211 453 281 590 70 138 199 396 288 575 88
179 169 337 180 353 11 15 33 34 48 42 70 36 595 171 1005 259 550 117 880
181 1095 211 63 9 131 24 152 32 41 16 68 55 68 97 0 36 -57 92 -110 107 -61
17 -271 15 -444 -6 -274 -32 -822 -134 -1299 -241 -225 -50 -252 -52 -267 -25
-13 25 -3 50 105 281 262 558 355 837 355 1060 0 152 -41 256 -130 333 -93 79
-212 105 -323 68z"/>
<path d="M9113 7232 c-73 -26 -124 -64 -208 -154 -43 -47 -80 -78 -92 -78 -11
0 -54 18 -97 40 -70 37 -84 40 -154 40 -68 0 -87 -4 -147 -34 -142 -68 -305
-248 -432 -476 -77 -138 -164 -410 -192 -597 -16 -104 -13 -282 5 -371 34
-168 145 -337 277 -420 289 -182 646 -107 1027 215 214 181 363 363 465 568
74 150 109 263 131 425 23 178 27 191 54 211 15 11 153 49 340 93 401 95 610
136 730 143 90 5 99 4 177 -27 92 -36 122 -34 157 14 26 34 28 126 4 172 -42
78 -127 131 -257 160 -182 41 -726 -12 -1103 -107 -171 -43 -167 -44 -255 51
-102 108 -173 144 -293 148 -63 2 -99 -3 -137 -16z m-142 -721 c92 -26 109
-37 109 -69 0 -54 -52 -135 -155 -237 -104 -105 -175 -155 -219 -155 -22 0
-26 4 -26 32 0 34 143 403 168 431 19 22 41 22 123 -2z"/>
<path d="M6606 7034 c-144 -46 -256 -184 -425 -522 -92 -185 -165 -361 -216
-526 -50 -158 -62 -170 -278 -289 -224 -123 -231 -127 -262 -127 -38 0 -33 39
21 161 68 156 122 292 162 409 33 97 35 115 36 230 1 122 0 127 -32 192 -40
82 -111 149 -190 178 -47 18 -73 21 -148 18 -82 -3 -100 -8 -170 -42 -109 -54
-233 -178 -339 -341 -77 -117 -157 -206 -315 -350 -36 -33 -151 -143 -255
-244 -105 -101 -209 -196 -233 -213 -94 -65 -83 0 46 268 121 252 136 298 130
409 -10 192 -140 324 -328 333 -98 5 -170 -21 -243 -88 -71 -64 -94 -111 -182
-360 -122 -343 -175 -573 -175 -759 0 -387 266 -576 603 -427 30 13 102 54
160 90 58 36 112 66 121 66 28 0 18 -54 -34 -187 -29 -76 -61 -141 -79 -160
-16 -18 -69 -58 -118 -89 -411 -264 -762 -537 -1163 -904 -379 -347 -595 -614
-770 -952 -178 -344 -257 -642 -267 -1008 -6 -212 7 -325 57 -498 91 -315 245
-496 486 -568 75 -23 254 -24 334 -1 236 65 460 225 679 482 183 216 311 425
528 865 131 268 509 1051 533 1105 10 22 109 229 220 460 111 231 283 602 382
824 209 472 217 488 255 523 15 14 84 59 153 99 69 40 207 121 306 180 100 60
193 113 207 118 41 16 63 -11 86 -106 26 -107 65 -186 119 -239 145 -145 370
-135 513 23 70 77 150 253 259 567 73 211 81 225 179 318 239 227 585 481 777
570 99 45 140 75 158 112 19 41 12 72 -27 113 -96 102 -305 72 -597 -85 -196
-105 -196 -105 -218 -93 -15 8 -22 25 -27 59 -22 187 -54 272 -127 337 -80 73
-195 100 -292 69z m-2889 -2930 c3 -8 -7 -48 -22 -87 -37 -95 -250 -563 -410
-902 -70 -148 -204 -436 -297 -640 -274 -599 -372 -769 -543 -941 -108 -109
-156 -132 -203 -97 -92 68 -149 329 -123 563 57 504 336 986 891 1540 209 209
520 483 625 549 55 35 73 38 82 15z"/>
</g>
</svg>
